<svg xmlns="http://www.w3.org/2000/svg" xmlns:xlink="http://www.w3.org/1999/xlink" width="128" height="128" viewBox="0 0 128 128" fill="none"><g opacity="1" transform="translate(0 0)  rotate(0 64 64)"><path fill-rule="evenodd" style="fill:#000000" transform="translate(0 0)  rotate(0 64 64)" opacity="1" d="M30,128L98,128C114.57,128 128,114.57 128,98L128,30C128,13.43 114.57,0 98,0L30,0C13.43,0 0,13.43 0,30L0,98C0,114.57 13.43,128 30,128Z " /><g opacity="1" transform="translate(27.5 26)  rotate(0 36.75 37.75)"><path fill-rule="evenodd" style="fill:#000000" transform="translate(3 6)  rotate(0 35.25 34.75)" opacity="1" d="M14.5,15.5L36,15.5L11.5,54L5,54L0,69.5L6,65.5L68.5,65.5L59,41L56.5,54L27.5,54L52.5,15.5L66,15.5L70.5,0L63,3.5L2,3.5L11.5,31L14.5,15.5Z " /><path  style="stroke:#FFFFFF; stroke-width:1; stroke-opacity:1; stroke-dasharray:0 0" transform="translate(3 6)  rotate(0 35.25 34.75)" d="M14.5,15.5L36,15.5L11.5,54L5,54L0,69.5L6,65.5L68.5,65.5L59,41L56.5,54L27.5,54L52.5,15.5L66,15.5L70.5,0L63,3.5L2,3.5L11.5,31L14.5,15.5Z " /><path fill-rule="evenodd" style="fill:#FFFFFF" transform="translate(0 0)  rotate(0 35.25 34.75)" opacity="1" d="M14.5,15.5L36,15.5L11.5,54L5,54L0,69.5L6,65.5L68.5,65.5L59,41L56.5,54L27.5,54L52.5,15.5L66,15.5L70.5,0L63,3.5L2,3.5L11.5,31L14.5,15.5Z " /><path  style="stroke:#A6A6A6; stroke-width:1; stroke-opacity:1; stroke-dasharray:0 0" transform="translate(0 0)  rotate(0 35.25 34.75)" d="M14.5,15.5L36,15.5L11.5,54L5,54L0,69.5L6,65.5L68.5,65.5L59,41L56.5,54L27.5,54L52.5,15.5L66,15.5L70.5,0L63,3.5L2,3.5L11.5,31L14.5,15.5Z " /></g></g></svg>