<svg width="24.000000" height="24.000000" viewBox="0 0 24 24" fill="none" xmlns="http://www.w3.org/2000/svg" xmlns:xlink="http://www.w3.org/1999/xlink">
	<desc>
			Created with Pixso.
	</desc>
	<defs>
		<clipPath id="clip12_54">
			<rect id="cc-yes-crude" rx="8.000000" width="24.000000" height="24.000000" fill="white"/>
		</clipPath>
	</defs>
	<g clip-path="url(#clip12_54)">
		<path id="path" d="M22.0108 7.31582L10.5385 18.7895C10.267 19.0615 9.89251 19.2286 9.47919 19.2286C9.06684 19.2286 8.69289 19.0615 8.42142 18.7895L1.93468 12.3045C1.6646 12.0341 1.49707 11.6593 1.49707 11.2476C1.49707 10.421 2.16727 9.74909 2.99394 9.74909C3.40723 9.74909 3.78174 9.91758 4.05321 10.1879L9.47922 15.6151L19.8946 5.19827C20.1657 4.928 20.5406 4.76117 20.9544 4.76117C21.78 4.76117 22.4513 5.43116 22.4513 6.25802C22.4513 6.67008 22.2842 7.04579 22.0108 7.31582Z" fill-rule="nonzero" fill="#15C327"/>
	</g>
</svg>
